<svg width="254" height="250" viewBox="0 0 254 250" fill="none" xmlns="http://www.w3.org/2000/svg">
<line x1="2" y1="248" x2="2" y2="10.0645" stroke="#ACB0D0" stroke-width="4" stroke-linecap="round"/>
<line x1="252" y1="248" x2="252" y2="10.0645" stroke="#ACB0D0" stroke-width="4" stroke-linecap="round"/>
<line x1="168.667" y1="248" x2="168.667" y2="10.0645" stroke="#ACB0D0" stroke-width="4" stroke-linecap="round"/>
<line x1="27.6667" y1="30.2581" x2="230.333" y2="30.2581" stroke="#ACB0D0" stroke-width="4" stroke-linecap="round"/>
<line x1="27.6667" y1="98" x2="230.333" y2="98" stroke="#ACB0D0" stroke-width="4" stroke-linecap="round"/>
<line x1="27.6667" y1="165.742" x2="230.333" y2="165.742" stroke="#ACB0D0" stroke-width="4" stroke-linecap="round"/>
<line x1="27.6667" y1="233.484" x2="230.333" y2="233.484" stroke="#ACB0D0" stroke-width="4" stroke-linecap="round"/>
<path d="M41.5 4.03226L33.1667 12.0968" stroke="#ACB0D0" stroke-width="2" stroke-linecap="round" stroke-linejoin="round"/>
<path d="M33.1667 4.03226L41.5 12.0968" stroke="#ACB0D0" stroke-width="2" stroke-linecap="round" stroke-linejoin="round"/>
<path d="M58.1667 4.03226L49.8333 12.0968" stroke="#ACB0D0" stroke-width="2" stroke-linecap="round" stroke-linejoin="round"/>
<path d="M49.8333 4.03226L58.1667 12.0968" stroke="#ACB0D0" stroke-width="2" stroke-linecap="round" stroke-linejoin="round"/>
<path d="M74.8333 4.03226L66.5 12.0968" stroke="#ACB0D0" stroke-width="2" stroke-linecap="round" stroke-linejoin="round"/>
<path d="M66.5 4.03226L74.8333 12.0968" stroke="#ACB0D0" stroke-width="2" stroke-linecap="round" stroke-linejoin="round"/>
<path d="M91.5 4.03226L83.1667 12.0968" stroke="#ACB0D0" stroke-width="2" stroke-linecap="round" stroke-linejoin="round"/>
<path d="M83.1667 4.03226L91.5 12.0968" stroke="#ACB0D0" stroke-width="2" stroke-linecap="round" stroke-linejoin="round"/>
<path d="M46.5 207.258L38.1667 215.323" stroke="#ACB0D0" stroke-width="2" stroke-linecap="round" stroke-linejoin="round"/>
<path d="M38.1667 207.258L46.5 215.323" stroke="#ACB0D0" stroke-width="2" stroke-linecap="round" stroke-linejoin="round"/>
<path d="M63.1667 207.258L54.8333 215.323" stroke="#ACB0D0" stroke-width="2" stroke-linecap="round" stroke-linejoin="round"/>
<path d="M54.8333 207.258L63.1667 215.323" stroke="#ACB0D0" stroke-width="2" stroke-linecap="round" stroke-linejoin="round"/>
<path d="M79.8333 207.258L71.5 215.323" stroke="#ACB0D0" stroke-width="2" stroke-linecap="round" stroke-linejoin="round"/>
<path d="M71.5 207.258L79.8333 215.323" stroke="#ACB0D0" stroke-width="2" stroke-linecap="round" stroke-linejoin="round"/>
<path d="M41.5 139.516L33.1667 147.581" stroke="#ACB0D0" stroke-width="2" stroke-linecap="round" stroke-linejoin="round"/>
<path d="M33.1667 139.516L41.5 147.581" stroke="#ACB0D0" stroke-width="2" stroke-linecap="round" stroke-linejoin="round"/>
<path d="M58.1667 139.516L49.8333 147.581" stroke="#ACB0D0" stroke-width="2" stroke-linecap="round" stroke-linejoin="round"/>
<path d="M49.8333 139.516L58.1667 147.581" stroke="#ACB0D0" stroke-width="2" stroke-linecap="round" stroke-linejoin="round"/>
<path d="M108.167 139.516L99.8333 147.581" stroke="#ACB0D0" stroke-width="2" stroke-linecap="round" stroke-linejoin="round"/>
<path d="M99.8333 139.516L108.167 147.581" stroke="#ACB0D0" stroke-width="2" stroke-linecap="round" stroke-linejoin="round"/>
<path d="M124.833 139.516L116.5 147.581" stroke="#ACB0D0" stroke-width="2" stroke-linecap="round" stroke-linejoin="round"/>
<path d="M116.5 139.516L124.833 147.581" stroke="#ACB0D0" stroke-width="2" stroke-linecap="round" stroke-linejoin="round"/>
<path d="M74.8333 139.516L66.5 147.581" stroke="#ACB0D0" stroke-width="2" stroke-linecap="round" stroke-linejoin="round"/>
<path d="M66.5 139.516L74.8333 147.581" stroke="#ACB0D0" stroke-width="2" stroke-linecap="round" stroke-linejoin="round"/>
<path d="M91.5 139.516L83.1667 147.581" stroke="#ACB0D0" stroke-width="2" stroke-linecap="round" stroke-linejoin="round"/>
<path d="M83.1667 139.516L91.5 147.581" stroke="#ACB0D0" stroke-width="2" stroke-linecap="round" stroke-linejoin="round"/>
<path d="M41.5 71.7742L33.1667 79.8387" stroke="#ACB0D0" stroke-width="2" stroke-linecap="round" stroke-linejoin="round"/>
<path d="M33.1667 71.7742L41.5 79.8387" stroke="#ACB0D0" stroke-width="2" stroke-linecap="round" stroke-linejoin="round"/>
<path d="M58.1667 71.7742L49.8333 79.8387" stroke="#ACB0D0" stroke-width="2" stroke-linecap="round" stroke-linejoin="round"/>
<path d="M49.8333 71.7742L58.1667 79.8387" stroke="#ACB0D0" stroke-width="2" stroke-linecap="round" stroke-linejoin="round"/>
<path d="M108.167 71.7742L99.8333 79.8387" stroke="#ACB0D0" stroke-width="2" stroke-linecap="round" stroke-linejoin="round"/>
<path d="M99.8333 71.7742L108.167 79.8387" stroke="#ACB0D0" stroke-width="2" stroke-linecap="round" stroke-linejoin="round"/>
<path d="M74.8333 71.7742L66.5 79.8387" stroke="#ACB0D0" stroke-width="2" stroke-linecap="round" stroke-linejoin="round"/>
<path d="M66.5 71.7742L74.8333 79.8387" stroke="#ACB0D0" stroke-width="2" stroke-linecap="round" stroke-linejoin="round"/>
<path d="M91.5 71.7742L83.1667 79.8387" stroke="#ACB0D0" stroke-width="2" stroke-linecap="round" stroke-linejoin="round"/>
<path d="M83.1667 71.7742L91.5 79.8387" stroke="#ACB0D0" stroke-width="2" stroke-linecap="round" stroke-linejoin="round"/>
</svg>
